<svg xmlns="http://www.w3.org/2000/svg" xmlns:xlink="http://www.w3.org/1999/xlink" width="336" zoomAndPan="magnify" viewBox="0 0 252 143.999998" height="192" preserveAspectRatio="xMidYMid meet" version="1.0"><defs><g/><clipPath id="fa41fdda67"><path d="M 94 34 L 153 34 L 153 92 L 94 92 Z M 94 34 " clip-rule="nonzero"/></clipPath><clipPath id="f87e415d4b"><path d="M 92.519531 69.039062 L 113.410156 32.601562 L 152.449219 54.984375 L 131.558594 91.421875 Z M 92.519531 69.039062 " clip-rule="nonzero"/></clipPath><clipPath id="34f809ec2b"><path d="M 24 38 L 41 38 L 41 56 L 24 56 Z M 24 38 " clip-rule="nonzero"/></clipPath><clipPath id="8e4b687b4b"><path d="M -1.480469 35.039062 L 19.410156 -1.398438 L 58.449219 20.984375 L 37.558594 57.421875 Z M -1.480469 35.039062 " clip-rule="nonzero"/></clipPath><clipPath id="1982d663b6"><path d="M 19.304688 -1.214844 L -1.585938 35.222656 L 37.453125 57.605469 L 58.34375 21.167969 Z M 19.304688 -1.214844 " clip-rule="nonzero"/></clipPath><clipPath id="c6cc95fa98"><path d="M 19.304688 -1.214844 L -1.585938 35.222656 L 37.453125 57.605469 L 58.34375 21.167969 Z M 19.304688 -1.214844 " clip-rule="nonzero"/></clipPath><clipPath id="72dd1cfdc2"><path d="M 11 15 L 55 15 L 55 37 L 11 37 Z M 11 15 " clip-rule="nonzero"/></clipPath><clipPath id="4a1c61a190"><path d="M -1.480469 35.039062 L 19.410156 -1.398438 L 58.449219 20.984375 L 37.558594 57.421875 Z M -1.480469 35.039062 " clip-rule="nonzero"/></clipPath><clipPath id="c7d7924dee"><path d="M 19.304688 -1.214844 L -1.585938 35.222656 L 37.453125 57.605469 L 58.34375 21.167969 Z M 19.304688 -1.214844 " clip-rule="nonzero"/></clipPath><clipPath id="4fe43cc98a"><path d="M 19.304688 -1.214844 L -1.585938 35.222656 L 37.453125 57.605469 L 58.34375 21.167969 Z M 19.304688 -1.214844 " clip-rule="nonzero"/></clipPath><clipPath id="485397b1ab"><path d="M 2 29 L 10 29 L 10 37 L 2 37 Z M 2 29 " clip-rule="nonzero"/></clipPath><clipPath id="ded4e78ac3"><path d="M -1.480469 35.039062 L 19.410156 -1.398438 L 58.449219 20.984375 L 37.558594 57.421875 Z M -1.480469 35.039062 " clip-rule="nonzero"/></clipPath><clipPath id="95b3f4c22c"><path d="M 19.304688 -1.214844 L -1.585938 35.222656 L 37.453125 57.605469 L 58.34375 21.167969 Z M 19.304688 -1.214844 " clip-rule="nonzero"/></clipPath><clipPath id="0436116479"><path d="M 19.304688 -1.214844 L -1.585938 35.222656 L 37.453125 57.605469 L 58.34375 21.167969 Z M 19.304688 -1.214844 " clip-rule="nonzero"/></clipPath><clipPath id="52e3f697b1"><rect x="0" width="59" y="0" height="58"/></clipPath></defs><rect x="-25.2" width="302.4" fill="#ffffff" y="-14.4" height="172.799997" fill-opacity="1"/><rect x="-25.2" width="302.4" fill="#000000" y="-14.4" height="172.799997" fill-opacity="1"/><g fill="#e5e5e5" fill-opacity="1"><g transform="translate(68.378414, 112.009625)"><g><path d="M 10.25 -8.421875 L 10.25 0 L 8.203125 0 L 8.203125 -5.265625 L 6.375 0 L 4.59375 0 L 2.765625 -5.28125 L 2.765625 0 L 0.703125 0 L 0.703125 -8.421875 L 3.21875 -8.421875 L 5.515625 -2.5625 L 7.75 -8.421875 Z M 10.25 -8.421875 "/></g></g></g><g fill="#e5e5e5" fill-opacity="1"><g transform="translate(80.823646, 112.009625)"><g><path d="M 8.046875 -8.484375 L 5.09375 -2.8125 L 5.09375 0 L 3.03125 0 L 3.03125 -2.8125 L 0.09375 -8.484375 L 2.453125 -8.484375 L 4.078125 -5.03125 L 5.71875 -8.484375 Z M 8.046875 -8.484375 "/></g></g></g><g fill="#e5e5e5" fill-opacity="1"><g transform="translate(90.439658, 112.009625)"><g/></g></g><g fill="#4dc3f1" fill-opacity="1"><g transform="translate(94.347162, 112.009625)"><g><path d="M 2.765625 -2.96875 L 2.765625 0 L 0.703125 0 L 0.703125 -8.484375 L 4.03125 -8.484375 C 5.039062 -8.484375 5.804688 -8.234375 6.328125 -7.734375 C 6.859375 -7.234375 7.125 -6.5625 7.125 -5.71875 C 7.125 -5.1875 7.003906 -4.710938 6.765625 -4.296875 C 6.535156 -3.890625 6.1875 -3.566406 5.71875 -3.328125 C 5.257812 -3.085938 4.695312 -2.96875 4.03125 -2.96875 Z M 3.796875 -4.625 C 4.628906 -4.625 5.046875 -4.988281 5.046875 -5.71875 C 5.046875 -6.457031 4.628906 -6.828125 3.796875 -6.828125 L 2.765625 -6.828125 L 2.765625 -4.625 Z M 3.796875 -4.625 "/></g></g></g><g fill="#4dc3f1" fill-opacity="1"><g transform="translate(103.267866, 112.009625)"><g><path d="M 5.0625 0 L 3.234375 -3.203125 L 2.765625 -3.203125 L 2.765625 0 L 0.703125 0 L 0.703125 -8.484375 L 4.21875 -8.484375 C 4.882812 -8.484375 5.445312 -8.363281 5.90625 -8.125 C 6.375 -7.894531 6.722656 -7.578125 6.953125 -7.171875 C 7.191406 -6.773438 7.3125 -6.316406 7.3125 -5.796875 C 7.3125 -5.179688 7.140625 -4.65625 6.796875 -4.21875 C 6.453125 -3.789062 5.957031 -3.5 5.3125 -3.34375 L 7.328125 0 Z M 2.765625 -4.609375 L 4.03125 -4.609375 C 4.4375 -4.609375 4.734375 -4.695312 4.921875 -4.875 C 5.117188 -5.050781 5.21875 -5.316406 5.21875 -5.671875 C 5.21875 -6.015625 5.117188 -6.28125 4.921875 -6.46875 C 4.722656 -6.65625 4.425781 -6.75 4.03125 -6.75 L 2.765625 -6.75 Z M 2.765625 -4.609375 "/></g></g></g><g fill="#4dc3f1" fill-opacity="1"><g transform="translate(112.392366, 112.009625)"><g><path d="M 4.734375 -8.609375 C 5.535156 -8.609375 6.257812 -8.421875 6.90625 -8.046875 C 7.5625 -7.679688 8.078125 -7.164062 8.453125 -6.5 C 8.835938 -5.84375 9.03125 -5.097656 9.03125 -4.265625 C 9.03125 -3.441406 8.835938 -2.695312 8.453125 -2.03125 C 8.078125 -1.363281 7.5625 -0.84375 6.90625 -0.46875 C 6.25 -0.101562 5.523438 0.078125 4.734375 0.078125 C 3.941406 0.078125 3.21875 -0.101562 2.5625 -0.46875 C 1.914062 -0.84375 1.398438 -1.363281 1.015625 -2.03125 C 0.640625 -2.695312 0.453125 -3.441406 0.453125 -4.265625 C 0.453125 -5.097656 0.640625 -5.84375 1.015625 -6.5 C 1.398438 -7.164062 1.914062 -7.679688 2.5625 -8.046875 C 3.21875 -8.421875 3.941406 -8.609375 4.734375 -8.609375 Z M 4.734375 -6.703125 C 4.066406 -6.703125 3.535156 -6.484375 3.140625 -6.046875 C 2.742188 -5.617188 2.546875 -5.023438 2.546875 -4.265625 C 2.546875 -3.523438 2.742188 -2.9375 3.140625 -2.5 C 3.535156 -2.0625 4.066406 -1.84375 4.734375 -1.84375 C 5.398438 -1.84375 5.929688 -2.0625 6.328125 -2.5 C 6.734375 -2.9375 6.9375 -3.523438 6.9375 -4.265625 C 6.9375 -5.015625 6.738281 -5.609375 6.34375 -6.046875 C 5.945312 -6.484375 5.410156 -6.703125 4.734375 -6.703125 Z M 4.734375 -6.703125 "/></g></g></g><g fill="#4dc3f1" fill-opacity="1"><g transform="translate(123.351056, 112.009625)"><g><path d="M 5.859375 0 L 4.0625 -2.640625 L 2.53125 0 L 0.1875 0 L 2.890625 -4.375 L 0.09375 -8.484375 L 2.53125 -8.484375 L 4.265625 -5.921875 L 5.765625 -8.484375 L 8.109375 -8.484375 L 5.4375 -4.21875 L 8.296875 0 Z M 5.859375 0 "/></g></g></g><g fill="#4dc3f1" fill-opacity="1"><g transform="translate(133.218826, 112.009625)"><g><path d="M 8.046875 -8.484375 L 5.09375 -2.8125 L 5.09375 0 L 3.03125 0 L 3.03125 -2.8125 L 0.09375 -8.484375 L 2.453125 -8.484375 L 4.078125 -5.03125 L 5.71875 -8.484375 Z M 8.046875 -8.484375 "/></g></g></g><g fill="#e5e5e5" fill-opacity="1"><g transform="translate(142.839347, 112.009625)"><g/></g></g><g fill="#e5e5e5" fill-opacity="1"><g transform="translate(146.736976, 112.009625)"><g><path d="M 8.046875 -8.484375 L 8.046875 0 L 5.96875 0 L 5.96875 -3.546875 L 2.765625 -3.546875 L 2.765625 0 L 0.703125 0 L 0.703125 -8.484375 L 2.765625 -8.484375 L 2.765625 -5.203125 L 5.96875 -5.203125 L 5.96875 -8.484375 Z M 8.046875 -8.484375 "/></g></g></g><g fill="#e5e5e5" fill-opacity="1"><g transform="translate(156.976382, 112.009625)"><g><path d="M 4.734375 -8.609375 C 5.535156 -8.609375 6.257812 -8.421875 6.90625 -8.046875 C 7.5625 -7.679688 8.078125 -7.164062 8.453125 -6.5 C 8.835938 -5.84375 9.03125 -5.097656 9.03125 -4.265625 C 9.03125 -3.441406 8.835938 -2.695312 8.453125 -2.03125 C 8.078125 -1.363281 7.5625 -0.84375 6.90625 -0.46875 C 6.25 -0.101562 5.523438 0.078125 4.734375 0.078125 C 3.941406 0.078125 3.21875 -0.101562 2.5625 -0.46875 C 1.914062 -0.84375 1.398438 -1.363281 1.015625 -2.03125 C 0.640625 -2.695312 0.453125 -3.441406 0.453125 -4.265625 C 0.453125 -5.097656 0.640625 -5.84375 1.015625 -6.5 C 1.398438 -7.164062 1.914062 -7.679688 2.5625 -8.046875 C 3.21875 -8.421875 3.941406 -8.609375 4.734375 -8.609375 Z M 4.734375 -6.703125 C 4.066406 -6.703125 3.535156 -6.484375 3.140625 -6.046875 C 2.742188 -5.617188 2.546875 -5.023438 2.546875 -4.265625 C 2.546875 -3.523438 2.742188 -2.9375 3.140625 -2.5 C 3.535156 -2.0625 4.066406 -1.84375 4.734375 -1.84375 C 5.398438 -1.84375 5.929688 -2.0625 6.328125 -2.5 C 6.734375 -2.9375 6.9375 -3.523438 6.9375 -4.265625 C 6.9375 -5.015625 6.738281 -5.609375 6.34375 -6.046875 C 5.945312 -6.484375 5.410156 -6.703125 4.734375 -6.703125 Z M 4.734375 -6.703125 "/></g></g></g><g fill="#e5e5e5" fill-opacity="1"><g transform="translate(167.935072, 112.009625)"><g><path d="M 6.796875 -2.390625 C 6.796875 -1.941406 6.679688 -1.53125 6.453125 -1.15625 C 6.234375 -0.78125 5.898438 -0.476562 5.453125 -0.25 C 5.003906 -0.03125 4.46875 0.078125 3.84375 0.078125 C 2.882812 0.078125 2.097656 -0.148438 1.484375 -0.609375 C 0.867188 -1.078125 0.535156 -1.726562 0.484375 -2.5625 L 2.65625 -2.5625 C 2.695312 -2.238281 2.8125 -1.984375 3 -1.796875 C 3.195312 -1.617188 3.445312 -1.53125 3.75 -1.53125 C 4.019531 -1.53125 4.226562 -1.597656 4.375 -1.734375 C 4.53125 -1.878906 4.609375 -2.070312 4.609375 -2.3125 C 4.609375 -2.53125 4.535156 -2.710938 4.390625 -2.859375 C 4.253906 -3.003906 4.082031 -3.117188 3.875 -3.203125 C 3.664062 -3.296875 3.378906 -3.410156 3.015625 -3.546875 C 2.472656 -3.722656 2.03125 -3.894531 1.6875 -4.0625 C 1.351562 -4.238281 1.0625 -4.5 0.8125 -4.84375 C 0.570312 -5.1875 0.453125 -5.628906 0.453125 -6.171875 C 0.453125 -6.671875 0.578125 -7.101562 0.828125 -7.46875 C 1.085938 -7.84375 1.441406 -8.125 1.890625 -8.3125 C 2.347656 -8.507812 2.867188 -8.609375 3.453125 -8.609375 C 4.398438 -8.609375 5.148438 -8.382812 5.703125 -7.9375 C 6.265625 -7.488281 6.578125 -6.875 6.640625 -6.09375 L 4.421875 -6.09375 C 4.390625 -6.375 4.289062 -6.597656 4.125 -6.765625 C 3.957031 -6.929688 3.734375 -7.015625 3.453125 -7.015625 C 3.210938 -7.015625 3.019531 -6.945312 2.875 -6.8125 C 2.726562 -6.6875 2.65625 -6.5 2.65625 -6.25 C 2.65625 -6.050781 2.71875 -5.878906 2.84375 -5.734375 C 2.976562 -5.597656 3.144531 -5.484375 3.34375 -5.390625 C 3.539062 -5.304688 3.832031 -5.195312 4.21875 -5.0625 C 4.757812 -4.875 5.203125 -4.691406 5.546875 -4.515625 C 5.890625 -4.335938 6.179688 -4.078125 6.421875 -3.734375 C 6.671875 -3.390625 6.796875 -2.941406 6.796875 -2.390625 Z M 6.796875 -2.390625 "/></g></g></g><g fill="#e5e5e5" fill-opacity="1"><g transform="translate(176.66396, 112.009625)"><g><path d="M 6.796875 -8.484375 L 6.796875 -6.859375 L 4.5 -6.859375 L 4.5 0 L 2.4375 0 L 2.4375 -6.859375 L 0.15625 -6.859375 L 0.15625 -8.484375 Z M 6.796875 -8.484375 "/></g></g></g><g clip-path="url(#fa41fdda67)"><g clip-path="url(#f87e415d4b)"><g transform="matrix(1, 0, 0, 1, 94, 34)"><g clip-path="url(#52e3f697b1)"><g clip-path="url(#34f809ec2b)"><g clip-path="url(#8e4b687b4b)"><g clip-path="url(#1982d663b6)"><g clip-path="url(#c6cc95fa98)"><path fill="#e5e5e5" d="M 33.570312 54.023438 L 24.347656 38.164062 L 32.445312 38.140625 L 39.628906 50.492188 C 40.277344 51.609375 40.246094 52.949219 39.640625 54 C 39.34375 54.515625 38.910156 54.960938 38.363281 55.28125 C 36.679688 56.261719 34.542969 55.691406 33.570312 54.023438 Z M 33.570312 54.023438 " fill-opacity="1" fill-rule="nonzero"/></g></g></g></g><g clip-path="url(#72dd1cfdc2)"><g clip-path="url(#4a1c61a190)"><g clip-path="url(#c7d7924dee)"><g clip-path="url(#4fe43cc98a)"><path fill="#e5e5e5" d="M 15.417969 36.195312 L 23.199219 36.171875 L 31.300781 36.144531 L 43.828125 36.109375 C 47.585938 36.097656 51.082031 34.066406 52.945312 30.808594 C 54.84375 27.503906 54.832031 23.558594 52.917969 20.257812 C 51.007812 16.960938 47.582031 14.996094 43.761719 15.011719 L 21.847656 15.082031 C 19.574219 15.089844 17.535156 16.273438 16.40625 18.242188 C 15.277344 20.214844 15.285156 22.570312 16.425781 24.542969 L 16.824219 25.226562 L 17.960938 27.191406 L 26.0625 27.160156 L 23.117188 22.089844 L 43.777344 22.03125 C 45.613281 22.023438 46.535156 23.253906 46.84375 23.789062 C 47.152344 24.324219 47.773438 25.730469 46.859375 27.328125 C 46.234375 28.417969 45.058594 29.105469 43.800781 29.097656 L 27.226562 29.148438 L 19.125 29.175781 L 15.402344 29.183594 C 13.460938 29.191406 11.894531 30.765625 11.90625 32.703125 C 11.90625 34.640625 13.480469 36.203125 15.417969 36.195312 Z M 15.417969 36.195312 " fill-opacity="1" fill-rule="nonzero"/></g></g></g></g><g clip-path="url(#485397b1ab)"><g clip-path="url(#ded4e78ac3)"><g clip-path="url(#95b3f4c22c)"><g clip-path="url(#0436116479)"><path fill="#e5e5e5" d="M 9.039062 30.574219 C 11.769531 34.304688 6.414062 38.441406 3.488281 34.859375 C 0.765625 31.128906 6.125 26.988281 9.039062 30.574219 Z M 9.039062 30.574219 " fill-opacity="1" fill-rule="nonzero"/></g></g></g></g></g></g></g></g></svg>