<svg xmlns="http://www.w3.org/2000/svg" xmlns:xlink="http://www.w3.org/1999/xlink" width="336" zoomAndPan="magnify" viewBox="0 0 252 143.999998" height="192" preserveAspectRatio="xMidYMid meet" version="1.0"><defs><filter x="0%" y="0%" width="100%" height="100%" id="9356a565f0"><feColorMatrix values="0 0 0 0 1 0 0 0 0 1 0 0 0 0 1 0 0 0 1 0" color-interpolation-filters="sRGB"/></filter><mask id="f749fd7e55"><g filter="url(#9356a565f0)"><rect x="-25.2" width="302.4" fill="#000000" y="-14.4" height="172.799997" fill-opacity="0.3"/></g></mask><clipPath id="6be09ff96c"><path d="M 0 0 L 154.558594 0 L 154.558594 115.921875 L 0 115.921875 Z M 0 0 " clip-rule="nonzero"/></clipPath><clipPath id="03599131a3"><path d="M -14.863281 53.175781 L 44.074219 -49.625 L 154.6875 13.789062 L 95.746094 116.59375 Z M -14.863281 53.175781 " clip-rule="nonzero"/></clipPath><clipPath id="05b009b2a7"><path d="M 58 61 L 103 61 L 103 112 L 58 112 Z M 58 61 " clip-rule="nonzero"/></clipPath><clipPath id="60f2475395"><path d="M -14.863281 53.175781 L 44.074219 -49.625 L 154.6875 13.789062 L 95.746094 116.59375 Z M -14.863281 53.175781 " clip-rule="nonzero"/></clipPath><clipPath id="8da7f18a6c"><path d="M 43.988281 -49.472656 L -14.953125 53.328125 L 95.660156 116.746094 L 154.597656 13.941406 Z M 43.988281 -49.472656 " clip-rule="nonzero"/></clipPath><clipPath id="9e777d0a88"><path d="M 43.988281 -49.472656 L -14.953125 53.328125 L 95.660156 116.746094 L 154.597656 13.941406 Z M 43.988281 -49.472656 " clip-rule="nonzero"/></clipPath><clipPath id="35e43f3024"><path d="M 23 0 L 144 0 L 144 57 L 23 57 Z M 23 0 " clip-rule="nonzero"/></clipPath><clipPath id="502a63c729"><path d="M -14.863281 53.175781 L 44.074219 -49.625 L 154.6875 13.789062 L 95.746094 116.59375 Z M -14.863281 53.175781 " clip-rule="nonzero"/></clipPath><clipPath id="5825475987"><path d="M 43.988281 -49.472656 L -14.953125 53.328125 L 95.660156 116.746094 L 154.597656 13.941406 Z M 43.988281 -49.472656 " clip-rule="nonzero"/></clipPath><clipPath id="8d4c597198"><path d="M 43.988281 -49.472656 L -14.953125 53.328125 L 95.660156 116.746094 L 154.597656 13.941406 Z M 43.988281 -49.472656 " clip-rule="nonzero"/></clipPath><clipPath id="32f8534ae0"><path d="M 0 36 L 18 36 L 18 57 L 0 57 Z M 0 36 " clip-rule="nonzero"/></clipPath><clipPath id="fc8f5fa468"><path d="M -14.863281 53.175781 L 44.074219 -49.625 L 154.6875 13.789062 L 95.746094 116.59375 Z M -14.863281 53.175781 " clip-rule="nonzero"/></clipPath><clipPath id="93adcf7dc0"><path d="M 43.988281 -49.472656 L -14.953125 53.328125 L 95.660156 116.746094 L 154.597656 13.941406 Z M 43.988281 -49.472656 " clip-rule="nonzero"/></clipPath><clipPath id="14cd18fa9b"><path d="M 43.988281 -49.472656 L -14.953125 53.328125 L 95.660156 116.746094 L 154.597656 13.941406 Z M 43.988281 -49.472656 " clip-rule="nonzero"/></clipPath><clipPath id="9bb028a907"><rect x="0" width="155" y="0" height="116"/></clipPath><clipPath id="01be46bbd4"><rect x="0" width="155" y="0" height="116"/></clipPath></defs><rect x="-25.2" width="302.4" fill="#ffffff" y="-14.4" height="172.799997" fill-opacity="1"/><rect x="-25.2" width="302.4" fill="#000000" y="-14.4" height="172.799997" fill-opacity="1"/><g mask="url(#f749fd7e55)"><g transform="matrix(1, 0, 0, 1, 0, -0.000000000000008916)"><g clip-path="url(#01be46bbd4)"><g clip-path="url(#6be09ff96c)"><g clip-path="url(#03599131a3)"><g transform="matrix(1, 0, 0, 1, 0, -0.000000000000008916)"><g clip-path="url(#9bb028a907)"><g clip-path="url(#05b009b2a7)"><g clip-path="url(#60f2475395)"><g clip-path="url(#8da7f18a6c)"><g clip-path="url(#9e777d0a88)"><path fill="#e5e5e5" d="M 84.375 106.925781 L 58.269531 62.019531 L 81.195312 61.960938 L 101.535156 96.933594 C 103.371094 100.09375 103.277344 103.886719 101.566406 106.867188 C 100.730469 108.328125 99.503906 109.589844 97.945312 110.492188 C 93.179688 113.265625 87.136719 111.65625 84.375 106.925781 Z M 84.375 106.925781 " fill-opacity="1" fill-rule="nonzero"/></g></g></g></g><g clip-path="url(#35e43f3024)"><g clip-path="url(#502a63c729)"><g clip-path="url(#5825475987)"><g clip-path="url(#8d4c597198)"><path fill="#e5e5e5" d="M 32.980469 56.453125 L 55.011719 56.386719 L 77.949219 56.308594 L 113.425781 56.203125 C 124.058594 56.175781 133.960938 50.417969 139.242188 41.203125 C 144.613281 31.835938 144.582031 20.671875 139.15625 11.324219 C 133.75 1.988281 124.046875 -3.574219 113.238281 -3.535156 L 51.1875 -3.328125 C 44.75 -3.3125 38.980469 0.0390625 35.78125 5.617188 C 32.582031 11.199219 32.605469 17.867188 35.832031 23.457031 L 36.96875 25.398438 L 40.1875 30.953125 L 63.125 30.871094 L 54.785156 16.511719 L 113.273438 16.34375 C 118.484375 16.324219 121.089844 19.8125 121.964844 21.324219 C 122.835938 22.835938 124.597656 26.824219 122.003906 31.347656 C 120.234375 34.433594 116.902344 36.371094 113.347656 36.355469 L 66.414062 36.496094 L 43.480469 36.574219 L 32.933594 36.597656 C 27.441406 36.621094 23.007812 41.074219 23.035156 46.5625 C 23.039062 52.042969 27.488281 56.476562 32.980469 56.453125 Z M 32.980469 56.453125 " fill-opacity="1" fill-rule="nonzero"/></g></g></g></g><g clip-path="url(#32f8534ae0)"><g clip-path="url(#fc8f5fa468)"><g clip-path="url(#93adcf7dc0)"><g clip-path="url(#14cd18fa9b)"><path fill="#e5e5e5" d="M 14.917969 40.535156 C 22.65625 51.09375 7.484375 62.8125 -0.800781 52.671875 C -8.507812 42.105469 6.667969 30.382812 14.917969 40.535156 Z M 14.917969 40.535156 " fill-opacity="1" fill-rule="nonzero"/></g></g></g></g></g></g></g></g></g></g></g></svg>